<?xml version="1.0" encoding="UTF-8" standalone="no"?><!-- Generator: Gravit.io --><svg xmlns="http://www.w3.org/2000/svg" xmlns:xlink="http://www.w3.org/1999/xlink" style="isolation:isolate" viewBox="1165 364 512 512.001" width="512pt" height="512.001pt"><path d=" M 1491.613 549.392 C 1551.36 609.201 1550.539 705.09 1491.972 763.982 C 1491.863 764.102 1491.732 764.232 1491.613 764.352 L 1424.413 831.552 C 1365.143 890.822 1268.713 890.814 1209.452 831.552 C 1150.183 772.292 1150.183 675.852 1209.452 616.592 L 1246.558 579.486 C 1256.398 569.646 1273.345 576.186 1273.853 590.092 C 1274.5 607.814 1277.679 625.619 1283.542 642.813 C 1285.529 648.635 1284.109 655.075 1279.76 659.425 L 1266.673 672.512 C 1238.646 700.538 1237.768 746.172 1265.518 774.472 C 1293.541 803.051 1339.604 803.221 1367.843 774.982 L 1435.043 707.792 C 1463.233 679.601 1463.116 634.035 1435.043 605.962 C 1431.342 602.268 1427.614 599.398 1424.702 597.393 C 1420.524 594.524 1417.949 589.85 1417.755 584.787 C 1417.358 574.22 1421.103 563.331 1429.452 554.981 L 1450.507 533.926 C 1456.028 528.405 1464.688 527.727 1471.09 532.195 C 1478.422 537.314 1485.289 543.069 1491.612 549.392 L 1491.613 549.392 Z  M 1632.548 408.45 C 1573.287 349.188 1476.857 349.18 1417.587 408.45 L 1350.387 475.65 C 1350.268 475.77 1350.137 475.9 1350.028 476.02 C 1291.462 534.912 1290.641 630.801 1350.387 690.61 C 1356.71 696.932 1363.577 702.686 1370.908 707.806 C 1377.31 712.274 1385.972 711.595 1391.492 706.075 L 1412.547 685.02 C 1420.896 676.67 1424.641 665.781 1424.244 655.214 C 1424.05 650.15 1421.475 645.476 1417.298 642.608 C 1414.385 640.603 1410.657 637.733 1406.956 634.039 C 1378.884 605.966 1378.766 560.4 1406.956 532.209 L 1474.156 465.019 C 1502.395 436.78 1548.456 436.95 1576.481 465.529 C 1604.231 493.829 1603.354 539.463 1575.327 567.489 L 1562.24 580.576 C 1557.889 584.926 1556.471 591.366 1558.456 597.188 C 1564.32 614.382 1567.499 632.187 1568.146 649.909 C 1568.655 663.815 1585.601 670.355 1595.441 660.515 L 1632.547 623.409 C 1691.817 564.15 1691.817 467.71 1632.548 408.45 L 1632.548 408.45 Z " fill="rgb(255,255,255)"/></svg>